<?xml version="1.0" encoding="utf-8"?>
<!-- Generator: Adobe Illustrator 26.4.1, SVG Export Plug-In . SVG Version: 6.00 Build 0)  -->
<svg version="1.1" id="Capa_1" xmlns="http://www.w3.org/2000/svg" xmlns:xlink="http://www.w3.org/1999/xlink" x="0px" y="0px"
	 viewBox="0 0 1080 1080" style="enable-background:new 0 0 1080 1080;" xml:space="preserve">
<g>
	<path d="M793.93,370.36c-33.27-104.65-113.07-159.61-216.97-148.41c-38.49,4.16-74.47,17.17-106.83,38.28
		c-128.1,83.48-188.88,204.66-197.88,354.35c-0.53,24.68,2.72,48.41,7.57,71.97c27.77,135.94,145.16,203.96,274.65,159.29
		C729.69,785.32,849.95,546.6,793.93,370.36z M566.61,598.9c7.2,36.46-2.61,70.69-25.38,100.33
		c-29.59,38.49-66.8,66.64-113.39,81.08c67.6-62.8,92.65-137.65,74.42-227.31c-7.68-37.85,0.21-74.05,15.35-108.86
		c25.06-57.63,91.69-127.89,139.4-145.85c-17.7,30.39-35.82,58.37-50.86,87.91C572.21,452.99,551.42,522.29,566.61,598.9z"/>
	<path d="M564.65,40.51c7.77,2.47,15.91,2.84,23.87,4.21c59.95,10.3,113.7,33.52,158.28,75.84c35.54,33.74,61.31,74.15,79.66,119.3
		c24.38,59.98,37.85,122.33,36.9,187.25c-0.91,62.33-17.25,120.1-54.11,171.22c-0.83,1.16-1.69,2.3-2.59,3.4
		c-0.17,0.21-0.61,0.19-1.46,0.43c5.07-14.81,9.45-29.51,12.9-44.47c15.82-68.5,16.49-136.53-6.98-203.66
		c-14.89-42.6-37.96-79.83-73.22-108.72c-30.02-24.59-64.53-38.92-102.9-44.08c-3.47-0.47-6.4-1.63-9.23-3.73
		c-40.9-30.41-86.62-46.1-137.84-44.39c-18.21,0.61-36.16,3.98-54.24,5.99c-4.04,0.45-3.22,2.92-3.04,5.31
		c1.96,26.52,3.61,53.07,6.12,79.54c0.81,8.56-0.73,13.92-8.19,19.5c-53.43,39.93-95.88,89.4-126.36,148.92
		c-0.48,0.94-0.99,1.86-2.04,3.8c-2.39-9.48-4.5-18.01-6.7-26.52c-12.97-50.24-26.39-100.36-47.18-148.1
		c-7.28-16.72-15.71-32.83-27.12-47.2c-19.09-24.03-38.53-30.32-68.05-21.94c-7.59,2.15-14.81,5.2-21.38,9.62
		c-15.57,10.47-20.84,25.33-15.53,43.33c2.86,9.71,8.25,18,14.26,26.08c-22.91-7.39-41.2-19.87-49.22-43.94
		c-0.59-1.78-0.34-3.95-2.26-5.14c0-7.5,0-15.01,0-22.51c1.72-21.18,13.31-37.14,27.9-51.15c12.02-11.55,26.76-18.92,42.46-24.28
		c43.02-14.67,87.17-24.88,131.78-33.3c42.99-8.12,86.24-14.43,129.69-19.46c24.28-2.81,48.48-6.3,72.82-8.57
		c12.13-1.13,24.33-1.55,36.51-2.05c1.57-0.06,3.22,0.47,4.68-0.52C536.78,40.51,550.72,40.51,564.65,40.51z"/>
	<path d="M1003,841.2c-1.86,0.88-1.35,2.81-1.61,4.22c-7.34,40.04-31.06,67.4-67.37,83.43c-66.16,29.19-127.24,20.38-182.15-27.36
		c-25.37-22.05-45.99-48.28-65.77-75.22c-4.75-6.47-9.38-13.04-14.24-19.44c-1.66-2.19-2.09-3.51,0.36-5.6
		c34.71-29.77,63.55-64.53,87.42-103.45c1.97-3.22,3.46-2.86,6.26-1.46c26.13,13.07,48.6,31.11,69.86,50.88
		c20.25,18.83,38.75,39.55,60.76,56.47c13.64,10.48,28.38,19.11,45.93,19.98c23.75,1.17,44.11-5.67,56.33-28.17
		c0.13-0.24,0.53-0.34,1.01-0.62c2.21,4.13,0.85,9.11,3.22,13.11C1003,819.04,1003,830.12,1003,841.2z"/>
	<path d="M425.32,1039.49c-0.85-12.48-3.78-24.62-5.98-36.87c-8.07-44.92-16.39-89.8-24.6-134.69c-0.09-0.49-0.01-1.01-0.01-2.05
		c6.41,2.14,12.5,4.41,18.72,6.2c46.31,13.34,92.35,11.2,138.14-2.71c7.02-2.13,7-2.16,9.21,4.92
		c12.26,39.11,24.52,78.21,36.78,117.31c2.02,6.44,2.01,6.45-4.44,7.99c-53.9,12.92-107.8,25.84-161.69,38.78
		c-1,0.24-1.95,0.74-2.92,1.12C427.47,1039.49,426.39,1039.49,425.32,1039.49z"/>
</g>
</svg>
